<svg xmlns="http://www.w3.org/2000/svg" xmlns:xlink="http://www.w3.org/1999/xlink" viewBox="3273 2668 50 49">
  <defs>
    <style>
      .cls-1 {
        clip-path: url(#clip-Artboard_3);
      }

      .cls-2 {
        fill: #fff;
      }
    </style>
    <clipPath id="clip-Artboard_3">
      <rect x="3273" y="2668" width="50" height="49"/>
    </clipPath>
  </defs>
  <g id="Artboard_3" data-name="Artboard – 3" class="cls-1">
    <path id="path" class="cls-2" d="M21.286,2H4.143A2.119,2.119,0,0,0,2.011,4.1L2,23l4.286-4.2h15a2.128,2.128,0,0,0,2.143-2.1V4.1A2.128,2.128,0,0,0,21.286,2ZM19.143,14.6H6.286V12.5H19.143Zm0-3.15H6.286V9.35H19.143Zm0-3.15H6.286V6.2H19.143Z" transform="translate(3286 2681.4)"/>
    <ellipse id="ellipse-5" cx="25" cy="24.5" rx="25" ry="24.5" transform="translate(3273 2668)"/>
    <path id="path-2" data-name="path" class="cls-2" d="M15,12a4,4,0,1,0-4-4A4,4,0,0,0,15,12ZM6,10V7H4v3H1v2H4v3H6V12H9V10Zm9,4c-2.67,0-8,1.34-8,4v2H23V18C23,15.34,17.67,14,15,14Z" transform="translate(3285 2680)"/>
  </g>
</svg>
