<svg xmlns="http://www.w3.org/2000/svg" xmlns:xlink="http://www.w3.org/1999/xlink" viewBox="-1480 2886 36 36">
  <defs>
    <style>
      .cls-1 {
        clip-path: url(#clip-Artboard_1);
      }

      .cls-2, .cls-7 {
        fill: none;
      }

      .cls-3 {
        fill: #4285f4;
      }

      .cls-3, .cls-4, .cls-5, .cls-6, .cls-7 {
        fill-rule: evenodd;
      }

      .cls-4 {
        fill: #34a853;
      }

      .cls-5 {
        fill: #fbbc05;
      }

      .cls-6 {
        fill: #ea4335;
      }
    </style>
    <clipPath id="clip-Artboard_1">
      <rect x="-1480" y="2886" width="36" height="36"/>
    </clipPath>
  </defs>
  <g id="Artboard_1" data-name="Artboard – 1" class="cls-1">
    <g id="btn_google_light_focus" transform="translate(-1484 2882)">
      <g id="button" transform="translate(4 4)">
        <g id="button-bg">
          <rect id="rectangle" class="cls-2" width="36" height="36" rx="2"/>
          <rect id="rectangle-2" data-name="rectangle" class="cls-2" width="36" height="36" rx="2"/>
          <rect id="rectangle-3" data-name="rectangle" class="cls-2" width="36" height="36" rx="2"/>
          <rect id="rectangle-4" data-name="rectangle" class="cls-2" width="36" height="36" rx="2"/>
        </g>
      </g>
      <g id="logo_googleg_48dp" transform="translate(13.9 13.9)">
        <path id="Shape" class="cls-3" d="M16.776,9.02a9.307,9.307,0,0,0-.147-1.657H9V10.5h4.359a3.726,3.726,0,0,1-1.616,2.445v2.032h2.618A7.9,7.9,0,0,0,16.776,9.02Z" transform="translate(-0.9 -0.736)"/>
        <path id="Shape-2" data-name="Shape" class="cls-4" d="M8.2,17.271a7.733,7.733,0,0,0,5.361-1.962l-2.618-2.032A4.887,4.887,0,0,1,3.663,10.71H.957v2.1A8.1,8.1,0,0,0,8.2,17.271Z" transform="translate(-0.096 -1.071)"/>
        <path id="Shape-3" data-name="Shape" class="cls-5" d="M3.568,10.135a4.789,4.789,0,0,1,0-3.078v-2.1H.862a8.11,8.11,0,0,0,0,7.275l2.706-2.1Z" transform="translate(0 -0.496)"/>
        <path id="Shape-4" data-name="Shape" class="cls-6" d="M8.2,3.222a4.376,4.376,0,0,1,3.1,1.211L13.615,2.11A7.784,7.784,0,0,0,8.2,0,8.1,8.1,0,0,0,.957,4.462l2.706,2.1A4.827,4.827,0,0,1,8.2,3.222Z" transform="translate(-0.096)"/>
        <path id="Shape-5" data-name="Shape" class="cls-7" d="M0,0H16.2V16.2H0Z"/>
      </g>
    </g>
  </g>
</svg>
